<svg width="192" height="192" viewBox="0 0 192 192" fill="none" xmlns="http://www.w3.org/2000/svg">
<circle cx="96" cy="96" r="96" fill="black"/>
<path d="M95.9292 131.652C76.6545 131.652 60.7871 115.899 60.7871 96.4671L130.621 96.4671C130.621 115.899 115.204 131.652 95.9292 131.652Z" fill="#6F79E8"/>
<path fill-rule="evenodd" clip-rule="evenodd" d="M165.279 96.467L130.587 96.467C130.587 87.1556 126.899 78.0732 120.368 71.489C113.837 64.9049 104.98 61.2059 95.7437 61.2059C86.5077 61.2059 77.65 64.9049 71.1191 71.489C64.5883 78.0732 60.7871 87.1556 60.7871 96.467L26.0948 96.467C26.0948 57.6851 57.2758 26.0972 95.7437 26.0972C134.212 26.0972 165.279 57.6851 165.279 96.467Z" fill="#52C4E9"/>
<path d="M71.2424 121.313C77.7733 127.897 86.5101 131.652 95.7461 131.652L95.7461 166.837C57.2782 166.837 26.0972 135.249 26.0972 96.467L60.7895 96.467C60.7895 105.778 64.7116 114.729 71.2424 121.313Z" fill="#78FBD5"/>
</svg>
