<svg width="640" height="624" viewBox="0 0 640 624" fill="none" xmlns="http://www.w3.org/2000/svg">
<path d="M93.6972 574.818C218.602 640.078 421.112 640.078 546.017 574.818C670.921 509.558 670.936 403.772 546.017 338.512C421.097 273.252 218.602 273.267 93.6823 338.512C-31.2373 403.757 -31.2225 509.543 93.6972 574.818Z" fill="#F5F5F5"/>
<path d="M251.521 518.145C285.184 534.189 339.748 534.189 373.336 518.145C406.924 502.101 406.999 476.104 373.336 460.06C339.674 444.016 285.124 444.016 251.521 460.06C217.918 476.104 217.799 502.116 251.521 518.145Z" fill="#EBEBEB"/>
<path d="M542.926 478.436L422.597 547.885C421.6 548.39 420.498 548.653 419.381 548.653C418.263 548.653 417.161 548.39 416.164 547.885L265.753 461.01C265.365 460.878 265.028 460.629 264.789 460.295C264.55 459.962 264.422 459.563 264.422 459.153C264.422 458.743 264.55 458.344 264.789 458.011C265.028 457.678 265.365 457.428 265.753 457.296L386.082 387.847C387.079 387.342 388.181 387.079 389.298 387.079C390.416 387.079 391.518 387.342 392.514 387.847L542.971 474.722C543.357 474.858 543.691 475.112 543.926 475.448C544.161 475.784 544.284 476.185 544.28 476.595C544.275 477.004 544.141 477.402 543.899 477.733C543.656 478.063 543.316 478.309 542.926 478.436Z" fill="#EBEBEB"/>
<path d="M576.411 96.6647V128.559C576.411 128.559 563.309 134.695 539.272 134.695C515.236 134.695 502.134 128.545 502.134 128.545V97.3481L527.21 26.3835C526.868 28.6118 528.175 30.8402 531.117 32.5931C533.269 33.9212 535.714 34.6986 538.238 34.8566C540.762 35.0147 543.285 34.5485 545.586 33.4993C546.232 33.2453 546.858 32.9423 547.458 32.5931C550.577 30.7956 551.914 28.3296 551.305 25.9824L576.411 96.6647Z" fill="#F5F5F5"/>
<path opacity="0.5" d="M576.411 96.6647V128.559C576.411 128.559 563.309 134.695 539.272 134.695C515.236 134.695 502.134 128.545 502.134 128.545V97.3481L527.21 26.3835C526.868 28.6118 528.175 30.8402 531.117 32.5931C533.269 33.9212 535.714 34.6986 538.238 34.8566C540.762 35.0147 543.285 34.5485 545.586 33.4993C546.232 33.2453 546.858 32.9423 547.458 32.5931C550.577 30.7956 551.914 28.3296 551.305 25.9824L576.411 96.6647Z" fill="white"/>
<path d="M573.528 320.24C571.375 323.076 568.646 325.425 565.521 327.133C550.993 335.526 527.447 335.526 512.933 327.133C509.802 325.427 507.068 323.078 504.911 320.24C503.235 318.011 502.244 315.342 502.059 312.56V329.123C502.326 334.412 505.936 339.656 512.933 343.697C527.447 352.075 550.993 352.075 565.521 343.697C572.771 339.507 576.41 334.011 576.41 328.514V311.965C576.355 314.96 575.345 317.859 573.528 320.24V320.24Z" fill="#F5F5F5"/>
<path d="M573.528 303.676C571.375 306.512 568.646 308.861 565.521 310.569C564.66 311.059 563.783 311.52 562.877 311.95C549.165 318.487 529.274 318.487 515.577 311.95C514.671 311.52 513.78 311.059 512.933 310.569C509.802 308.863 507.068 306.514 504.911 303.676C503.235 301.452 502.244 298.789 502.059 296.01V312.559C502.244 315.342 503.235 318.011 504.911 320.24C507.068 323.078 509.802 325.427 512.933 327.133C527.447 335.526 550.993 335.526 565.521 327.133C568.646 325.425 571.375 323.076 573.528 320.24C575.345 317.859 576.355 314.96 576.41 311.965V295.401C576.356 298.396 575.346 301.295 573.528 303.676Z" fill="#EBEBEB"/>
<path d="M573.528 287.112C571.373 289.95 568.645 292.304 565.521 294.02C564.66 294.51 563.783 294.956 562.877 295.401C549.165 301.938 529.274 301.938 515.577 295.401C514.671 294.956 513.78 294.51 512.933 294.02C509.805 292.303 507.072 289.95 504.911 287.112C503.235 284.888 502.244 282.225 502.059 279.446V296.01C502.244 298.788 503.235 301.452 504.911 303.676C507.068 306.514 509.802 308.863 512.933 310.569C513.78 311.059 514.671 311.519 515.577 311.95C529.274 318.487 549.165 318.487 562.877 311.95C563.783 311.519 564.66 311.059 565.521 310.569C568.646 308.861 571.375 306.512 573.528 303.676C575.346 301.295 576.356 298.396 576.41 295.401V278.837C576.358 281.833 575.348 284.732 573.528 287.112V287.112Z" fill="#F5F5F5"/>
<path d="M502.059 97.2886V279.446C502.244 282.224 503.235 284.888 504.911 287.112C507.072 289.95 509.805 292.303 512.933 294.02C513.78 294.51 514.671 294.956 515.577 295.401C519.168 297.075 522.95 298.307 526.838 299.07L520.108 107.093L502.059 97.2886Z" fill="#F5F5F5"/>
<path d="M558.346 107.094L551.602 299.071C555.49 298.307 559.271 297.075 562.862 295.402C563.768 294.956 564.645 294.51 565.506 294.02C568.63 292.304 571.358 289.95 573.513 287.112C575.333 284.733 576.343 281.833 576.395 278.838V96.665L558.346 107.094Z" fill="#F5F5F5"/>
<path d="M502.059 97.2886V279.446C502.244 282.224 503.235 284.888 504.911 287.112C507.072 289.95 509.805 292.303 512.933 294.02C513.78 294.51 514.671 294.956 515.577 295.401C519.168 297.075 522.95 298.307 526.838 299.07L520.108 107.093L502.059 97.2886Z" fill="#E0E0E0"/>
<path d="M558.346 107.094L551.602 299.071C555.49 298.307 559.271 297.075 562.862 295.402C563.768 294.956 564.645 294.51 565.506 294.02C568.63 292.304 571.358 289.95 573.513 287.112C575.333 284.733 576.343 281.833 576.395 278.838V96.665L558.346 107.094Z" fill="#E0E0E0"/>
<path d="M520.108 107.093V297.243C522.309 298.004 524.557 298.619 526.838 299.085C530.916 299.909 535.067 300.323 539.227 300.318C543.388 300.315 547.538 299.902 551.617 299.085C553.898 298.619 556.146 298.004 558.346 297.243V107.093H520.108Z" fill="#EBEBEB"/>
<path d="M547.397 32.519C546.797 32.8682 546.171 33.1711 545.525 33.4252C543.224 34.4744 540.701 34.9406 538.177 34.7825C535.653 34.6245 533.207 33.847 531.056 32.519C528.085 30.8255 526.807 28.5377 527.149 26.3094L535.705 2.34753C535.987 1.64683 536.474 1.04769 537.102 0.628793C537.731 0.209896 538.471 -0.0091692 539.226 0.00036054V0.00036054C539.983 -0.0101259 540.726 0.208356 541.357 0.627183C541.988 1.04601 542.478 1.64565 542.762 2.34753L551.229 25.8786C551.809 28.2258 550.516 30.7215 547.397 32.519Z" fill="#E0E0E0"/>
<path d="M565.521 343.696C553.043 350.901 533.909 351.897 519.558 346.668C518.756 346.39 517.969 346.078 517.196 345.732L516.127 345.286C515.013 344.781 513.943 344.231 512.933 343.652C505.936 339.611 502.326 334.367 502.059 329.079V374.21C501.791 379.914 505.401 385.663 512.933 390.001C513.824 390.521 514.76 391.011 515.726 391.487C516.082 391.665 516.469 391.798 516.825 391.962C517.449 392.229 518.058 392.512 518.697 392.749C519.336 392.987 519.692 393.106 520.182 393.269C520.673 393.433 521.237 393.655 521.787 393.819C522.336 393.982 523.005 394.16 523.614 394.324C524.223 394.487 524.55 394.591 525.025 394.695C525.501 394.799 526.437 395.007 527.15 395.141C527.551 395.141 527.952 395.319 528.353 395.379C529.155 395.527 529.972 395.631 530.789 395.75L531.755 395.884C532.661 395.988 533.567 396.062 534.473 396.121H535.186C536.182 396.196 537.177 396.225 538.158 396.24H538.633C539.703 396.24 540.772 396.24 541.842 396.24H542.079C543.208 396.24 544.337 396.107 545.466 396.003C552.083 395.441 558.527 393.594 564.437 390.565V390.565C564.764 390.387 565.105 390.239 565.432 390.046C572.682 385.856 576.321 380.36 576.321 374.863V328.514C576.41 334.011 572.771 339.507 565.521 343.696Z" fill="#E0E0E0"/>
<path d="M180.269 120.732L164.3 129.942C164.388 129.243 164.433 128.538 164.433 127.833V123.213C164.433 114.983 158.655 111.64 151.539 115.785C148.463 117.67 145.836 120.205 143.844 123.213C142.67 112.814 134.559 109.011 124.695 114.701C114.029 120.866 105.383 135.84 105.383 148.14V155.063C105.315 157.826 105.874 160.569 107.017 163.085L93.7512 170.735C91.6678 172.096 89.934 173.928 88.69 176.083C87.4461 178.238 86.727 180.655 86.5908 183.14C86.5908 187.7 89.7996 189.557 93.7512 187.27L180.269 137.326C182.353 135.965 184.087 134.133 185.331 131.978C186.574 129.823 187.294 127.406 187.43 124.921C187.43 120.301 184.251 118.444 180.269 120.732Z" fill="#F0F0F0"/>
<path d="M243.79 352.675C308.492 366.861 413.395 366.861 478.097 352.675C542.799 338.49 542.807 315.494 478.097 301.309C413.387 287.123 308.492 287.126 243.782 301.309C179.073 315.491 179.08 338.486 243.79 352.675Z" fill="#F5F5F5"/>
<path d="M344.484 318.702C356.698 324.523 376.495 324.523 388.681 318.702C400.867 312.881 400.894 303.449 388.681 297.627C376.468 291.806 356.676 291.806 344.484 297.627C332.292 303.449 332.249 312.886 344.484 318.702Z" fill="#EBEBEB"/>
<path d="M450.212 304.294L406.554 329.492C406.192 329.675 405.792 329.771 405.387 329.771C404.982 329.771 404.582 329.675 404.22 329.492L349.648 297.972C349.507 297.924 349.385 297.834 349.298 297.713C349.212 297.592 349.165 297.447 349.165 297.298C349.165 297.15 349.212 297.005 349.298 296.884C349.385 296.763 349.507 296.673 349.648 296.625L393.306 271.427C393.667 271.244 394.067 271.148 394.473 271.148C394.878 271.148 395.278 271.244 395.639 271.427L450.228 302.947C450.368 302.996 450.489 303.089 450.574 303.21C450.66 303.332 450.705 303.478 450.703 303.627C450.701 303.775 450.653 303.92 450.565 304.039C450.476 304.159 450.353 304.248 450.212 304.294Z" fill="#EBEBEB"/>
<path d="M359.141 143.849L346.149 151.342C346.221 150.773 346.257 150.2 346.258 149.626V145.867C346.258 139.172 341.556 136.452 335.767 139.824C333.265 141.358 331.128 143.42 329.507 145.867C328.552 137.407 321.953 134.313 313.929 138.942C305.251 143.958 298.217 156.14 298.217 166.147V171.779C298.162 174.027 298.616 176.258 299.547 178.305L288.754 184.529C287.059 185.636 285.649 187.126 284.637 188.88C283.625 190.633 283.039 192.6 282.929 194.621C282.929 198.331 285.539 199.842 288.754 197.981L359.141 157.349C360.836 156.242 362.247 154.751 363.259 152.998C364.271 151.245 364.856 149.278 364.966 147.257C364.966 143.498 362.38 141.988 359.141 143.849Z" fill="#F0F0F0"/>
<path d="M260.126 167.723L251.934 172.448C251.98 172.089 252.003 171.727 252.003 171.366V168.996C252.003 164.774 249.039 163.06 245.389 165.186C243.811 166.152 242.463 167.453 241.441 168.996C240.839 163.662 236.679 161.711 231.619 164.629C226.148 167.792 221.713 175.473 221.713 181.782V185.333C221.678 186.751 221.964 188.158 222.551 189.448L215.746 193.373C214.677 194.071 213.788 195.01 213.15 196.116C212.512 197.221 212.143 198.461 212.073 199.736C212.073 202.075 213.719 203.027 215.746 201.854L260.126 176.235C261.195 175.537 262.084 174.597 262.722 173.492C263.36 172.387 263.729 171.147 263.799 169.872C263.799 167.502 262.168 166.55 260.126 167.723Z" fill="#F0F0F0"/>
<path d="M514.483 174.289L502.766 181.047C502.831 180.533 502.864 180.017 502.865 179.499V176.109C502.865 170.071 498.625 167.619 493.404 170.66C491.147 172.042 489.22 173.902 487.758 176.109C486.897 168.48 480.946 165.689 473.708 169.864C465.882 174.387 459.539 185.374 459.539 194.399V199.478C459.489 201.505 459.899 203.517 460.738 205.364L451.005 210.977C449.476 211.975 448.204 213.319 447.291 214.9C446.379 216.481 445.851 218.255 445.751 220.078C445.751 223.424 448.105 224.787 451.005 223.108L514.483 186.464C516.012 185.466 517.284 184.122 518.197 182.541C519.11 180.959 519.637 179.186 519.737 177.363C519.737 173.973 517.405 172.611 514.483 174.289Z" fill="#F0F0F0"/>
<path d="M453.103 163.842L446.786 167.485C446.821 167.208 446.839 166.93 446.839 166.651V164.823C446.839 161.568 444.553 160.246 441.739 161.885C440.522 162.631 439.483 163.634 438.695 164.823C438.231 160.71 435.023 159.206 431.121 161.456C426.902 163.895 423.483 169.818 423.483 174.683V177.421C423.456 178.514 423.677 179.599 424.129 180.594L418.882 183.62C418.058 184.158 417.372 184.883 416.88 185.735C416.388 186.587 416.104 187.544 416.05 188.526C416.05 190.33 417.319 191.065 418.882 190.16L453.103 170.405C453.927 169.867 454.613 169.143 455.105 168.29C455.597 167.438 455.881 166.482 455.935 165.499C455.935 163.672 454.677 162.937 453.103 163.842Z" fill="#F0F0F0"/>
<path d="M494.972 118.036L488.655 121.679C488.69 121.403 488.708 121.124 488.708 120.845V119.018C488.708 115.762 486.423 114.44 483.608 116.08C482.391 116.825 481.352 117.828 480.564 119.018C480.1 114.905 476.892 113.4 472.99 115.651C468.772 118.089 465.352 124.012 465.352 128.877V131.615C465.325 132.708 465.546 133.793 465.998 134.788L460.751 137.814C459.927 138.352 459.241 139.077 458.749 139.929C458.257 140.782 457.973 141.738 457.919 142.721C457.919 144.525 459.188 145.259 460.751 144.354L494.972 124.6C495.796 124.062 496.482 123.337 496.974 122.485C497.466 121.632 497.75 120.676 497.804 119.693C497.804 117.866 496.547 117.131 494.972 118.036Z" fill="#F0F0F0"/>
<path d="M495.586 480.556L492.976 479.082L494.829 478.247C494.829 478.247 496.277 478.638 496.316 478.703C496.304 479.04 496.27 479.376 496.212 479.708L495.586 480.556Z" fill="#E0E0E0"/>
<path d="M495.586 480.556L492.976 479.082L494.829 478.247C494.829 478.247 496.277 478.638 496.316 478.703C496.304 479.04 496.27 479.376 496.212 479.708L495.586 480.556Z" fill="#6F79E8"/>
<path opacity="0.1" d="M495.586 480.556L492.976 479.082L494.829 478.247C494.829 478.247 496.277 478.638 496.316 478.703C496.304 479.04 496.27 479.376 496.212 479.708L495.586 480.556Z" fill="white"/>
<path d="M398.464 529.482C399.621 530.068 400.899 530.373 402.196 530.373C403.493 530.373 404.772 530.068 405.929 529.482L489.633 481.196L364.35 408.845L361.427 407.161L277.722 455.447C275.673 456.635 275.673 458.579 277.722 459.754L398.464 529.482Z" fill="#6F79E8"/>
<path opacity="0.8" d="M398.464 529.482C399.621 530.068 400.899 530.373 402.196 530.373C403.493 530.373 404.772 530.068 405.929 529.482L489.633 481.196L364.35 408.845L361.427 407.161L277.722 455.447C275.673 456.635 275.673 458.579 277.722 459.754L398.464 529.482Z" fill="white"/>
<path d="M429.903 438.183L459.097 454.978L477.993 444.068L499.931 456.779V472.583C499.931 474.502 497.778 477.229 496.995 476.785C495.547 477.136 494.138 477.634 492.793 478.273C490.597 479.521 488.56 481.028 486.724 482.762L419.646 444.042L429.903 438.183Z" fill="#E0E0E0"/>
<path d="M429.903 438.183L459.097 454.978L477.993 444.068L499.931 456.779V472.583C499.931 474.502 497.778 477.229 496.995 476.785C495.547 477.136 494.138 477.634 492.793 478.273C490.597 479.521 488.56 481.028 486.724 482.762L419.646 444.042L429.903 438.183Z" fill="#6F79E8"/>
<path opacity="0.1" d="M429.903 438.183L459.097 454.978L477.993 444.068L499.931 456.779V472.583C499.931 474.502 497.778 477.229 496.995 476.785C495.547 477.136 494.138 477.634 492.793 478.273C490.597 479.521 488.56 481.028 486.724 482.762L419.646 444.042L429.903 438.183Z" fill="white"/>
<path d="M405.968 529.469L411.019 526.546L486.802 482.801C486.859 481.812 487.219 480.864 487.833 480.087C488.728 478.897 489.856 477.903 491.148 477.164C492.229 476.502 493.458 476.12 494.724 476.054C495.57 476.043 496.397 476.314 497.073 476.824C498.059 474.887 498.54 472.732 498.469 470.56H501.34C501.34 474.475 500.035 478.495 498.43 479.408L496.981 480.256C496.159 480.726 495.507 480.752 495.507 480.256V479.486C495.507 478.625 494.202 478.664 492.583 479.604C490.965 480.544 489.673 481.979 489.673 482.84V483.623C489.673 484.067 488.551 485.059 487.193 485.842L413.903 528.164L405.968 532.732C404.82 533.326 403.542 533.626 402.249 533.606V530.291C403.539 530.344 404.821 530.061 405.968 529.469V529.469Z" fill="#6F79E8"/>
<path opacity="0.6" d="M405.968 529.469L411.019 526.546L486.802 482.801C486.859 481.812 487.219 480.864 487.833 480.087C488.728 478.897 489.856 477.903 491.148 477.164C492.229 476.502 493.458 476.12 494.724 476.054C495.57 476.043 496.397 476.314 497.073 476.824C498.059 474.887 498.54 472.732 498.469 470.56H501.34C501.34 474.475 500.035 478.495 498.43 479.408L496.981 480.256C496.159 480.726 495.507 480.752 495.507 480.256V479.486C495.507 478.625 494.202 478.664 492.583 479.604C490.965 480.544 489.673 481.979 489.673 482.84V483.623C489.673 484.067 488.551 485.059 487.193 485.842L413.903 528.164L405.968 532.732C404.82 533.326 403.542 533.626 402.249 533.606V530.291C403.539 530.344 404.821 530.061 405.968 529.469V529.469Z" fill="white"/>
<path d="M276.157 457.536V460.916C276.2 461.367 276.36 461.8 276.621 462.17C276.882 462.541 277.235 462.837 277.645 463.03V463.03L390.491 528.177L398.413 532.745C399.561 533.339 400.839 533.64 402.132 533.619V530.305C400.83 530.336 399.544 530.025 398.4 529.404L393.362 526.494L277.645 459.663C277.233 459.469 276.879 459.171 276.618 458.798C276.357 458.425 276.198 457.99 276.157 457.536Z" fill="#6F79E8"/>
<path opacity="0.1" d="M276.157 457.536V460.916C276.2 461.367 276.36 461.8 276.621 462.17C276.882 462.541 277.235 462.837 277.645 463.03V463.03L390.491 528.177L398.413 532.745C399.561 533.339 400.839 533.64 402.132 533.619V530.305C400.83 530.336 399.544 530.025 398.4 529.404L393.362 526.494L277.645 459.663C277.233 459.469 276.879 459.171 276.618 458.798C276.357 458.425 276.198 457.99 276.157 457.536Z" fill="white"/>
<path d="M402.196 508.027V527.394C403.06 527.42 403.915 527.217 404.676 526.807L413.811 521.508L483.748 481.131V460.929L402.196 508.027Z" fill="white"/>
<path d="M279.799 439.774V454.664C279.845 455.527 280.093 456.366 280.524 457.114C280.955 457.862 281.556 458.498 282.278 458.971L390.596 521.482L399.731 526.78C400.492 527.189 401.347 527.392 402.211 527.368V510.076L279.799 439.774Z" fill="#F0F0F0"/>
<path d="M483.802 481.105C483.871 480.114 484.24 479.167 484.859 478.39C485.758 477.208 486.885 476.218 488.174 475.48C489.246 474.808 490.473 474.422 491.736 474.358C492.586 474.351 493.416 474.621 494.098 475.128V454.965L483.828 460.903L483.802 481.105Z" fill="#455A64"/>
<path d="M487.913 475.649C486.723 476.352 485.685 477.283 484.859 478.39C484.24 479.167 483.871 480.113 483.802 481.104V461.842H487.9L487.913 475.649Z" fill="#F5F5F5"/>
<path d="M364.324 385.146L489.607 457.497V459.18C489.607 460.107 490.912 460.485 492.517 459.52C494.123 458.554 495.441 457.432 495.441 455.827L495.597 454.234L367.926 380.526L367.417 380.226C367.284 380.462 367.208 380.726 367.195 380.996V381.779C367.221 382.745 365.929 384.246 364.324 385.146Z" fill="#6F79E8"/>
<path opacity="0.6" d="M364.324 385.146L489.607 457.497V459.18C489.607 460.107 490.912 460.485 492.517 459.52C494.123 458.554 495.441 457.432 495.441 455.827L495.597 454.234L367.926 380.526L367.417 380.226C367.284 380.462 367.208 380.726 367.195 380.996V381.779C367.221 382.745 365.929 384.246 364.324 385.146Z" fill="white"/>
<path d="M405.969 505.874L487.821 458.605C488.852 458.07 489.805 457.627 490.209 457.836L489.674 457.535L364.391 385.184L362.929 384.336C362.273 384.149 361.584 384.105 360.908 384.206C360.233 384.308 359.587 384.552 359.014 384.923L277.802 431.826C275.753 433.014 275.753 434.945 277.802 436.133L398.57 505.874C399.718 506.449 400.985 506.749 402.27 506.749C403.554 506.749 404.821 506.449 405.969 505.874V505.874Z" fill="#6F79E8"/>
<path opacity="0.8" d="M405.969 505.874L487.821 458.605C488.852 458.07 489.805 457.627 490.209 457.836L489.674 457.535L364.391 385.184L362.929 384.336C362.273 384.149 361.584 384.105 360.908 384.206C360.233 384.308 359.587 384.552 359.014 384.923L277.802 431.826C275.753 433.014 275.753 434.945 277.802 436.133L398.57 505.874C399.718 506.449 400.985 506.749 402.27 506.749C403.554 506.749 404.821 506.449 405.969 505.874V505.874Z" fill="white"/>
<path d="M367.444 380.265L367.953 380.566L495.625 454.313C495.689 454.177 495.783 454.057 495.899 453.961L496.329 453.713L497.256 453.191L498.391 452.525C498.611 452.379 498.875 452.312 499.138 452.335C499.402 452.359 499.649 452.472 499.84 452.656C499.894 452.692 499.942 452.736 499.983 452.786C500.137 452.943 500.265 453.124 500.362 453.321C500.501 453.547 500.614 453.788 500.701 454.039C500.801 454.307 500.884 454.582 500.949 454.861C501.027 455.187 501.08 455.5 501.145 455.84C501.18 456.034 501.202 456.23 501.21 456.427C501.21 456.584 501.21 456.727 501.21 456.91C501.21 457.093 501.21 457.641 501.21 458.019V454.43C501.075 453.251 500.668 452.12 500.02 451.125C499.372 450.131 498.502 449.301 497.478 448.701L376.697 378.96C375.702 378.373 374.585 378.024 373.432 377.94C372.28 377.856 371.124 378.04 370.054 378.478L368.527 379.365L367.875 379.73C367.686 379.867 367.538 380.052 367.444 380.265Z" fill="#6F79E8"/>
<path opacity="0.8" d="M367.444 380.265L367.953 380.566L495.625 454.313C495.689 454.177 495.783 454.057 495.899 453.961L496.329 453.713L497.256 453.191L498.391 452.525C498.611 452.379 498.875 452.312 499.138 452.335C499.402 452.359 499.649 452.472 499.84 452.656C499.894 452.692 499.942 452.736 499.983 452.786C500.137 452.943 500.265 453.124 500.362 453.321C500.501 453.547 500.614 453.788 500.701 454.039C500.801 454.307 500.884 454.582 500.949 454.861C501.027 455.187 501.08 455.5 501.145 455.84C501.18 456.034 501.202 456.23 501.21 456.427C501.21 456.584 501.21 456.727 501.21 456.91C501.21 457.093 501.21 457.641 501.21 458.019V454.43C501.075 453.251 500.668 452.12 500.02 451.125C499.372 450.131 498.502 449.301 497.478 448.701L376.697 378.96C375.702 378.373 374.585 378.024 373.432 377.94C372.28 377.856 371.124 378.04 370.054 378.478L368.527 379.365L367.875 379.73C367.686 379.867 367.538 380.052 367.444 380.265Z" fill="white"/>
<path d="M405.969 505.887L411.032 502.95L469.249 469.359L487.833 458.632C489.138 457.849 490.234 457.574 490.3 457.979V458.814C490.3 459.754 491.605 459.754 493.21 458.814C493.805 458.556 494.326 458.153 494.727 457.643C495.128 457.132 495.396 456.53 495.507 455.891V454.977C495.488 454.774 495.517 454.568 495.591 454.378C495.666 454.188 495.785 454.017 495.937 453.881L496.368 453.633L497.295 453.111L498.43 452.446C498.65 452.299 498.914 452.232 499.177 452.256C499.441 452.28 499.688 452.393 499.879 452.576C499.933 452.612 499.981 452.656 500.022 452.707C500.119 452.809 500.203 452.923 500.27 453.046C500.325 453.103 500.37 453.169 500.401 453.242C500.539 453.468 500.653 453.709 500.74 453.96C500.84 454.228 500.923 454.503 500.988 454.782C501.066 455.108 501.118 455.421 501.184 455.76C501.219 455.954 501.241 456.151 501.249 456.348C501.249 456.504 501.249 456.648 501.249 456.831C501.249 457.013 501.249 457.561 501.249 457.94V470.52H498.378V457.94C498.378 457.64 498.378 457.34 498.378 457.052L498.299 456.335C498.306 456.313 498.306 456.291 498.299 456.269C498.038 458.553 495.859 460.589 493.967 461.659C492.916 462.322 491.711 462.7 490.469 462.755C489.512 462.768 488.584 462.429 487.859 461.803L487.598 461.946L487.102 462.246L413.812 504.569L405.969 509.188C404.838 509.767 403.584 510.058 402.314 510.037V506.722C403.583 506.749 404.838 506.462 405.969 505.887V505.887Z" fill="#6F79E8"/>
<path opacity="0.6" d="M405.969 505.887L411.032 502.95L469.249 469.359L487.833 458.632C489.138 457.849 490.234 457.574 490.3 457.979V458.814C490.3 459.754 491.605 459.754 493.21 458.814C493.805 458.556 494.326 458.153 494.727 457.643C495.128 457.132 495.396 456.53 495.507 455.891V454.977C495.488 454.774 495.517 454.568 495.591 454.378C495.666 454.188 495.785 454.017 495.937 453.881L496.368 453.633L497.295 453.111L498.43 452.446C498.65 452.299 498.914 452.232 499.177 452.256C499.441 452.28 499.688 452.393 499.879 452.576C499.933 452.612 499.981 452.656 500.022 452.707C500.119 452.809 500.203 452.923 500.27 453.046C500.325 453.103 500.37 453.169 500.401 453.242C500.539 453.468 500.653 453.709 500.74 453.96C500.84 454.228 500.923 454.503 500.988 454.782C501.066 455.108 501.118 455.421 501.184 455.76C501.219 455.954 501.241 456.151 501.249 456.348C501.249 456.504 501.249 456.648 501.249 456.831C501.249 457.013 501.249 457.561 501.249 457.94V470.52H498.378V457.94C498.378 457.64 498.378 457.34 498.378 457.052L498.299 456.335C498.306 456.313 498.306 456.291 498.299 456.269C498.038 458.553 495.859 460.589 493.967 461.659C492.916 462.322 491.711 462.7 490.469 462.755C489.512 462.768 488.584 462.429 487.859 461.803L487.598 461.946L487.102 462.246L413.812 504.569L405.969 509.188C404.838 509.767 403.584 510.058 402.314 510.037V506.722C403.583 506.749 404.838 506.462 405.969 505.887V505.887Z" fill="white"/>
<path d="M276.157 433.94V437.347C276.198 437.8 276.357 438.235 276.618 438.608C276.879 438.981 277.233 439.28 277.645 439.474V439.474L390.491 504.621L398.413 509.202C399.561 509.796 400.839 510.096 402.132 510.076V506.761C400.832 506.79 399.547 506.484 398.4 505.874L393.362 502.964L277.645 436.133C277.224 435.933 276.864 435.625 276.602 435.239C276.341 434.854 276.187 434.405 276.157 433.94Z" fill="#6F79E8"/>
<path opacity="0.1" d="M276.157 433.94V437.347C276.198 437.8 276.357 438.235 276.618 438.608C276.879 438.981 277.233 439.28 277.645 439.474V439.474L390.491 504.621L398.413 509.202C399.561 509.796 400.839 510.096 402.132 510.076V506.761C400.832 506.79 399.547 506.484 398.4 505.874L393.362 502.964L277.645 436.133C277.224 435.933 276.864 435.625 276.602 435.239C276.341 434.854 276.187 434.405 276.157 433.94Z" fill="white"/>
<path d="M358.908 384.924C359.481 384.553 360.127 384.308 360.802 384.207C361.477 384.106 362.166 384.15 362.823 384.337L364.285 385.185C365.89 384.245 367.182 382.745 367.182 381.818V381.035C367.194 380.765 367.27 380.501 367.404 380.265C367.506 380.053 367.664 379.873 367.86 379.743L368.513 379.378L370.04 378.49C371.109 378.053 372.265 377.869 373.418 377.953C374.57 378.037 375.687 378.386 376.682 378.973L497.463 448.714L497.594 448.792L412.362 498.005C411.592 498.398 410.74 498.603 409.876 498.603C409.012 498.603 408.16 498.398 407.39 498.005L285.826 427.129L358.908 384.924Z" fill="#263238"/>
<path d="M419.188 490.853L415.965 489C416.832 488.698 417.764 488.63 418.666 488.804C419.528 489.248 419.188 490.853 419.188 490.853Z" fill="#6F79E8"/>
<path opacity="0.7" d="M419.188 490.853L415.965 489C416.832 488.698 417.764 488.63 418.666 488.804C419.528 489.248 419.188 490.853 419.188 490.853Z" fill="black"/>
<path d="M421.408 488.857C421.042 488.459 420.597 488.142 420.101 487.925C419.606 487.708 419.071 487.596 418.531 487.596C417.99 487.596 417.455 487.708 416.96 487.925C416.465 488.142 416.02 488.459 415.653 488.857C412.508 491.741 412.351 494.599 411.046 494.56C409.741 494.521 409.741 471.526 409.741 471.526L422.152 483.023L421.408 488.857Z" fill="#6F79E8"/>
<path opacity="0.7" d="M421.408 488.857C421.042 488.459 420.597 488.142 420.101 487.925C419.606 487.708 419.071 487.596 418.531 487.596C417.99 487.596 417.455 487.708 416.96 487.925C416.465 488.142 416.02 488.459 415.653 488.857C412.508 491.741 412.351 494.599 411.046 494.56C409.741 494.521 409.741 471.526 409.741 471.526L422.152 483.023L421.408 488.857Z" fill="black"/>
<path d="M291.661 405.268L291.452 405.151L293.436 404.003L378.889 354.672L503.402 435.245C505.451 436.433 505.817 438.155 504.211 439.069L501.301 440.752L421.433 486.937L420.859 486.52L291.661 405.268Z" fill="#6F79E8"/>
<path opacity="0.5" d="M291.661 405.268L291.452 405.151L293.436 404.003L378.889 354.672L503.402 435.245C505.451 436.433 505.817 438.155 504.211 439.069L501.301 440.752L421.433 486.937L420.859 486.52L291.661 405.268Z" fill="black"/>
<path d="M410.771 460.641L416.957 459.336V484.132C413.224 485.724 410.849 487.212 410.432 490.331L410.771 460.641Z" fill="#455A64"/>
<path d="M419.683 484.459L498.807 438.783C499.532 438.312 500.136 437.676 500.569 436.928C501.002 436.18 501.252 435.34 501.299 434.476V410.059L421.405 456.583C421.405 456.583 420.453 460.042 417.621 461.125C414.789 462.208 416.955 463.317 416.955 463.317V484.198C419.396 483.846 419.683 484.459 419.683 484.459Z" fill="#F0F0F0"/>
<path d="M412.39 459.794C413.213 459.324 413.865 459.298 413.865 459.794V460.564C413.865 461.425 415.17 461.386 416.788 460.446C418.407 459.507 419.712 458.071 419.712 457.21V456.427C419.712 455.983 420.821 454.991 422.178 454.208L293.45 380.448L291.453 381.596C291.177 381.89 291.003 382.265 290.957 382.666V383.449C290.957 384.311 289.652 385.759 288.047 386.686C286.442 387.612 285.124 387.665 285.124 386.803V386.02C285.124 385.577 284.471 385.616 283.662 386.085L412.39 459.794Z" fill="#6F79E8"/>
<path opacity="0.6" d="M412.39 459.794C413.213 459.324 413.865 459.298 413.865 459.794V460.564C413.865 461.425 415.17 461.386 416.788 460.446C418.407 459.507 419.712 458.071 419.712 457.21V456.427C419.712 455.983 420.821 454.991 422.178 454.208L293.45 380.448L291.453 381.596C291.177 381.89 291.003 382.265 290.957 382.666V383.449C290.957 384.311 289.652 385.759 288.047 386.686C286.442 387.612 285.124 387.665 285.124 386.803V386.02C285.124 385.577 284.471 385.616 283.662 386.085L412.39 459.794Z" fill="black"/>
<path d="M291.661 381.661L291.452 381.544L293.436 380.396L378.889 331.065L503.402 402.973C505.451 404.16 505.817 405.87 504.211 406.796L501.301 408.467L421.407 456.583L291.661 381.661Z" fill="#6F79E8"/>
<path opacity="0.5" d="M291.661 381.661L291.452 381.544L293.436 380.396L378.889 331.065L503.402 402.973C505.451 404.16 505.817 405.87 504.211 406.796L501.301 408.467L421.407 456.583L291.661 381.661Z" fill="black"/>
<path d="M285.098 385.224L413.8 459.533L409.297 463.056L281.078 389.035C281.391 388.083 281.987 387.249 282.788 386.647L285.098 385.224Z" fill="#6F79E8"/>
<path opacity="0.5" d="M285.098 385.224L413.8 459.533L409.297 463.056L281.078 389.035C281.391 388.083 281.987 387.249 282.788 386.647L285.098 385.224Z" fill="black"/>
<path d="M281.509 422.248C281.43 422.199 281.356 422.142 281.288 422.078C281.229 422.049 281.179 422.004 281.144 421.948C281.039 421.845 280.951 421.726 280.883 421.596C280.825 421.546 280.781 421.483 280.753 421.413C280.613 421.189 280.503 420.948 280.426 420.695C280.318 420.424 280.231 420.145 280.165 419.86C280.087 419.547 280.035 419.233 279.983 418.894C279.937 418.701 279.911 418.505 279.904 418.307V417.824C279.904 417.472 279.904 417.093 279.904 416.715V395.456C279.881 393.224 280.289 391.008 281.105 388.931L409.324 462.952L409.859 496.256L281.653 422.209L281.509 422.248Z" fill="#6F79E8"/>
<path opacity="0.7" d="M281.509 422.248C281.43 422.199 281.356 422.142 281.288 422.078C281.229 422.049 281.179 422.004 281.144 421.948C281.039 421.845 280.951 421.726 280.883 421.596C280.825 421.546 280.781 421.483 280.753 421.413C280.613 421.189 280.503 420.948 280.426 420.695C280.318 420.424 280.231 420.145 280.165 419.86C280.087 419.547 280.035 419.233 279.983 418.894C279.937 418.701 279.911 418.505 279.904 418.307V417.824C279.904 417.472 279.904 417.093 279.904 416.715V395.456C279.881 393.224 280.289 391.008 281.105 388.931L409.324 462.952L409.859 496.256L281.653 422.209L281.509 422.248Z" fill="black"/>
<path opacity="0.79" d="M409.232 463.004C409.232 463.004 308.249 415.749 299.062 411.416C292.993 408.558 290.018 414.561 291.453 420.773C292.758 426.202 298.07 431.801 298.07 431.801L281.561 422.261C281.482 422.212 281.408 422.155 281.339 422.092C281.28 422.062 281.231 422.017 281.196 421.961C281.09 421.858 281.002 421.739 280.935 421.609C280.877 421.559 280.832 421.496 280.804 421.426C280.665 421.202 280.555 420.961 280.478 420.708C280.37 420.437 280.282 420.158 280.217 419.873C280.139 419.56 280.087 419.247 280.034 418.907C279.989 418.715 279.963 418.518 279.956 418.32V417.837C279.956 417.485 279.956 417.106 279.956 416.728V395.456C279.933 393.224 280.34 391.008 281.157 388.931L409.232 463.004Z" fill="#263238"/>
<path d="M408.044 469.49H410.915C410.848 467.319 411.323 465.166 412.298 463.226C412.981 463.732 413.81 464.002 414.66 463.996C415.924 463.931 417.151 463.545 418.223 462.873C419.515 462.139 420.643 461.149 421.538 459.963C421.606 459.881 421.667 459.794 421.721 459.702C422.228 458.98 422.522 458.13 422.569 457.249L498.352 413.504L500.962 412.003L504.251 410.111C504.537 409.98 504.782 409.774 504.959 409.514C505.136 409.254 505.239 408.95 505.256 408.636V405.282C505.242 405.602 505.141 405.912 504.963 406.179C504.786 406.445 504.54 406.659 504.251 406.796V406.796L495.546 411.807L422.269 454.13C420.898 454.913 419.789 455.904 419.789 456.348V457.131C419.708 457.627 419.47 458.084 419.111 458.436C418.482 459.193 417.721 459.829 416.866 460.315C415.248 461.255 413.943 461.294 413.943 460.433V459.663C413.943 459.206 413.303 459.245 412.481 459.663L411.032 460.511C409.349 461.555 408.044 465.536 408.044 469.49Z" fill="#6F79E8"/>
<path d="M410.916 469.489V490.748C410.916 491.049 410.916 491.349 410.916 491.636L410.981 492.354C410.975 492.375 410.975 492.398 410.981 492.419C411.242 490.135 413.421 488.099 415.314 487.029C416.369 486.364 417.579 485.987 418.824 485.933C419.781 485.921 420.71 486.259 421.434 486.885L421.682 486.742L422.191 486.442L495.469 444.12L499.684 441.692L500.885 440.988L504.434 438.939C504.668 438.792 504.861 438.591 504.998 438.352C505.134 438.113 505.21 437.844 505.217 437.568V440.922C505.207 441.182 505.136 441.436 505.009 441.663C504.882 441.89 504.703 442.083 504.486 442.227V442.227C504.069 442.475 503.625 442.71 503.181 442.984L502.359 443.467L500.95 444.276C500.637 444.472 500.35 444.642 500.075 444.785C499.801 444.929 499.645 445.046 499.462 445.138L498.379 445.777L440.162 479.369L421.578 490.096C420.273 490.879 419.19 491.153 419.111 490.748C419.107 490.701 419.107 490.653 419.111 490.605V489.861C419.111 488.921 417.806 488.921 416.201 489.861C415.606 490.12 415.084 490.522 414.684 491.033C414.283 491.543 414.015 492.145 413.904 492.784V493.698C413.923 493.901 413.894 494.107 413.82 494.297C413.745 494.488 413.626 494.658 413.474 494.794L413.043 495.042L412.129 495.564L410.994 496.229C410.774 496.376 410.51 496.443 410.247 496.419C409.983 496.395 409.736 496.282 409.545 496.099C409.486 496.07 409.437 496.025 409.402 495.969C409.297 495.871 409.209 495.756 409.141 495.629V495.629C409.09 495.574 409.046 495.512 409.01 495.446C408.871 495.223 408.761 494.981 408.684 494.729C408.574 494.463 408.487 494.188 408.423 493.907C408.345 493.58 408.293 493.267 408.24 492.928C408.194 492.735 408.168 492.538 408.162 492.341C408.162 492.184 408.162 492.04 408.162 491.858C408.162 491.675 408.162 491.127 408.162 490.748V469.489H410.916Z" fill="#6F79E8"/>
<g opacity="0.6">
<path opacity="0.6" d="M408.043 469.49H410.914C410.847 467.32 411.322 465.167 412.297 463.226C412.98 463.732 413.809 464.003 414.659 463.996C415.923 463.932 417.15 463.545 418.222 462.874C419.514 462.139 420.642 461.149 421.537 459.964C421.605 459.882 421.666 459.795 421.72 459.703C422.227 458.98 422.521 458.13 422.568 457.249L498.351 413.504L500.961 412.004L504.25 410.111C504.536 409.981 504.781 409.774 504.958 409.514C505.135 409.254 505.238 408.951 505.255 408.637V405.283C505.241 405.603 505.14 405.912 504.963 406.179C504.785 406.446 504.539 406.659 504.25 406.797V406.797L495.545 411.808L422.268 454.13C420.898 454.913 419.788 455.905 419.788 456.349V457.132C419.707 457.628 419.469 458.085 419.11 458.437C418.481 459.193 417.72 459.83 416.865 460.316C415.247 461.256 413.942 461.295 413.942 460.433V459.663C413.942 459.207 413.302 459.246 412.48 459.663L411.032 460.512C409.348 461.556 408.043 465.536 408.043 469.49Z" fill="black"/>
<path opacity="0.6" d="M410.916 469.49V490.749C410.916 491.05 410.916 491.35 410.916 491.637L410.981 492.355C410.975 492.376 410.975 492.398 410.981 492.42C411.242 490.136 413.421 488.1 415.314 487.03C416.369 486.365 417.579 485.988 418.824 485.934C419.781 485.922 420.71 486.26 421.434 486.886L421.682 486.743L422.191 486.443L495.469 444.121L499.684 441.693L500.885 440.989L504.434 438.94C504.668 438.793 504.861 438.592 504.998 438.353C505.134 438.114 505.21 437.845 505.217 437.569V440.923C505.207 441.183 505.136 441.437 505.009 441.664C504.882 441.891 504.703 442.084 504.486 442.228V442.228C504.069 442.476 503.625 442.711 503.181 442.985L502.359 443.468L500.95 444.277C500.637 444.473 500.35 444.643 500.075 444.786C499.801 444.93 499.645 445.047 499.462 445.139L498.379 445.778L440.162 479.369L421.578 490.097C420.273 490.88 419.19 491.154 419.111 490.749C419.107 490.702 419.107 490.654 419.111 490.606V489.862C419.111 488.922 417.806 488.922 416.201 489.862C415.606 490.121 415.084 490.523 414.684 491.034C414.283 491.544 414.015 492.146 413.904 492.785V493.699C413.923 493.902 413.894 494.108 413.82 494.298C413.745 494.489 413.626 494.659 413.474 494.795L413.043 495.043L412.129 495.565L410.994 496.23C410.774 496.377 410.51 496.444 410.247 496.42C409.983 496.396 409.736 496.283 409.545 496.1C409.486 496.071 409.437 496.026 409.402 495.969C409.297 495.872 409.209 495.757 409.141 495.63V495.63C409.09 495.575 409.046 495.513 409.01 495.447C408.871 495.224 408.761 494.982 408.684 494.73C408.574 494.464 408.487 494.189 408.423 493.908C408.345 493.581 408.293 493.268 408.24 492.929C408.194 492.736 408.168 492.539 408.162 492.342C408.162 492.185 408.162 492.041 408.162 491.859C408.162 491.676 408.162 491.128 408.162 490.749V469.49H410.916Z" fill="black"/>
</g>
<path d="M281.012 388.969L402.876 459.336L494.985 406.156C495.286 406.055 495.547 405.862 495.733 405.605C495.918 405.347 496.018 405.038 496.018 404.72C496.018 404.403 495.918 404.094 495.733 403.836C495.547 403.578 495.286 403.386 494.985 403.285L374.4 333.648L293.488 380.395L291.491 381.556C291.221 381.848 291.052 382.218 291.008 382.613V383.396C291.008 384.258 289.703 385.706 288.098 386.633C288.017 386.687 287.929 386.73 287.837 386.763L285.149 385.21L283.844 385.941L283.661 386.032L282.721 386.581C281.922 387.185 281.326 388.018 281.012 388.969V388.969Z" fill="#263238"/>
<path d="M488.186 406.678L484.519 404.721L487.859 403.925C488.18 404.3 488.383 404.762 488.441 405.252C488.499 405.742 488.41 406.239 488.186 406.678V406.678Z" fill="#E0E0E0"/>
<g style="mix-blend-mode:multiply" opacity="0.5">
<path d="M488.186 406.678L484.519 404.721L487.859 403.925C488.18 404.3 488.383 404.762 488.441 405.252C488.499 405.742 488.41 406.239 488.186 406.678V406.678Z" fill="#E0E0E0"/>
</g>
<path d="M390.999 455.617C392.154 456.203 393.43 456.508 394.725 456.508C396.02 456.508 397.296 456.203 398.451 455.617L482.156 407.331L356.873 328.129L353.936 326.432L270.245 381.557C268.196 382.744 268.196 384.676 270.245 385.863L390.999 455.617Z" fill="#6F79E8"/>
<path d="M422.425 357.44L485.667 400.297L451.619 374.197L470.515 363.286L492.492 376.011V398.705C492.492 400.636 490.339 403.364 489.556 402.92C488.108 403.27 486.699 403.769 485.354 404.408C483.158 405.656 481.121 407.163 479.285 408.897L412.22 363.313L422.425 357.44Z" fill="#6F79E8"/>
<path opacity="0.2" d="M422.425 357.44L485.667 400.297L451.619 374.197L470.515 363.286L492.492 376.011V398.705C492.492 400.636 490.339 403.364 489.556 402.92C488.108 403.27 486.699 403.769 485.354 404.408C483.158 405.656 481.121 407.163 479.285 408.897L412.22 363.313L422.425 357.44Z" fill="black"/>
<path d="M394.719 427.285V453.49C395.586 453.509 396.444 453.307 397.211 452.903L406.347 447.604L476.296 407.227V380.16L394.719 427.285Z" fill="white"/>
<path d="M272.32 359.045V380.8C272.368 381.662 272.617 382.5 273.048 383.248C273.479 383.996 274.079 384.633 274.8 385.107L383.117 447.618L392.253 452.916C393.016 453.319 393.869 453.521 394.732 453.504V429.334L272.32 359.045Z" fill="#F0F0F0"/>
<path d="M476.338 407.226C476.402 406.237 476.766 405.29 477.382 404.512C478.274 403.323 479.402 402.332 480.697 401.602C481.774 400.93 483.005 400.544 484.272 400.479C485.095 400.396 485.921 400.589 486.622 401.028V374.222L476.351 380.16L476.338 407.226Z" fill="#455A64"/>
<path d="M480.436 401.759C479.252 402.474 478.216 403.409 477.382 404.512C476.766 405.29 476.402 406.237 476.338 407.227V381.126H480.423L480.436 401.759Z" fill="#F5F5F5"/>
<path d="M356.858 304.442L482.141 376.806V378.477C482.141 379.417 483.446 379.782 485.052 378.829C486.657 377.877 487.988 376.728 487.988 375.123L488.145 373.531L360.473 299.823L359.951 299.522C359.82 299.763 359.748 300.032 359.743 300.305V301.075C359.756 302.002 358.464 303.503 356.858 304.442Z" fill="#6F79E8"/>
<path opacity="0.2" d="M356.858 304.442L482.141 376.806V378.477C482.141 379.417 483.446 379.782 485.052 378.829C486.657 377.877 487.988 376.728 487.988 375.123L488.145 373.531L360.473 299.823L359.951 299.522C359.82 299.763 359.748 300.032 359.743 300.305V301.075C359.756 302.002 358.464 303.503 356.858 304.442Z" fill="black"/>
<path d="M398.451 425.131L480.355 377.876C481.399 377.328 482.351 376.884 482.743 377.093L482.208 376.806L356.925 304.442L355.45 303.607C354.794 303.412 354.104 303.364 353.427 303.465C352.751 303.567 352.105 303.816 351.535 304.194L270.245 351.084C268.196 352.271 268.196 354.216 270.245 355.39L391.025 425.131C392.177 425.713 393.448 426.016 394.738 426.016C396.028 426.016 397.3 425.713 398.451 425.131V425.131Z" fill="#6F79E8"/>
<path d="M359.967 299.523L360.489 299.823L488.186 373.531C488.251 373.395 488.344 373.275 488.46 373.179L488.891 372.944L489.804 372.409L490.94 371.743C491.161 371.599 491.424 371.534 491.687 371.557C491.949 371.581 492.197 371.693 492.388 371.874C492.442 371.91 492.491 371.954 492.532 372.004C492.683 372.167 492.814 372.346 492.923 372.539C493.058 372.766 493.167 373.007 493.25 373.257C493.352 373.531 493.439 373.809 493.511 374.092C493.576 374.406 493.641 374.719 493.693 375.058C493.733 375.256 493.759 375.457 493.772 375.659V376.128C493.772 376.481 493.772 376.859 493.772 377.251V373.662C493.641 372.48 493.235 371.345 492.587 370.348C491.939 369.351 491.066 368.519 490.039 367.92L369.259 298.179C368.263 297.593 367.145 297.245 365.992 297.164C364.84 297.082 363.684 297.269 362.616 297.709L361.089 298.596L360.45 298.975C360.24 299.108 360.072 299.298 359.967 299.523V299.523Z" fill="#6F79E8"/>
<path d="M398.452 455.617L403.502 452.694L479.285 408.936C479.352 407.947 479.716 407 480.329 406.222C481.225 405.036 482.353 404.046 483.644 403.311C484.72 402.65 485.945 402.268 487.207 402.202C488.059 402.185 488.891 402.456 489.569 402.972C490.543 401.026 491.018 398.869 490.952 396.695H493.823C493.823 400.61 492.518 404.629 490.913 405.556L489.465 406.404C488.642 406.874 488.003 406.9 488.003 406.404V405.634C488.003 404.773 486.698 404.812 485.067 405.739C483.435 406.665 482.156 408.127 482.156 408.988V409.758C482.156 410.202 481.047 411.194 479.677 411.99L406.386 454.312L398.452 458.893C397.303 459.487 396.025 459.787 394.732 459.767V456.452C396.023 456.496 397.304 456.209 398.452 455.617V455.617Z" fill="#6F79E8"/>
<path opacity="0.4" d="M398.452 455.617L403.502 452.694L479.285 408.936C479.352 407.947 479.716 407 480.329 406.222C481.225 405.036 482.353 404.046 483.644 403.311C484.72 402.65 485.945 402.268 487.207 402.202C488.059 402.185 488.891 402.456 489.569 402.972C490.543 401.026 491.018 398.869 490.952 396.695H493.823C493.823 400.61 492.518 404.629 490.913 405.556L489.465 406.404C488.642 406.874 488.003 406.9 488.003 406.404V405.634C488.003 404.773 486.698 404.812 485.067 405.739C483.435 406.665 482.156 408.127 482.156 408.988V409.758C482.156 410.202 481.047 411.194 479.677 411.99L406.386 454.312L398.452 458.893C397.303 459.487 396.025 459.787 394.732 459.767V456.452C396.023 456.496 397.304 456.209 398.452 455.617V455.617Z" fill="black"/>
<path d="M398.426 425.145L403.477 422.222L461.694 388.63L480.356 377.877C481.661 377.107 482.757 376.833 482.836 377.237V378.085C482.836 379.012 484.141 379.012 485.746 378.085C486.343 377.826 486.865 377.421 487.266 376.908C487.667 376.396 487.934 375.791 488.043 375.149V374.236C488.024 374.032 488.053 373.827 488.127 373.636C488.202 373.446 488.321 373.276 488.473 373.139L488.904 372.904L489.818 372.369L490.953 371.704C491.174 371.56 491.437 371.494 491.7 371.518C491.963 371.542 492.21 371.653 492.402 371.834C492.455 371.871 492.504 371.915 492.545 371.965C492.646 372.071 492.734 372.189 492.806 372.317C492.856 372.374 492.899 372.435 492.937 372.5C493.071 372.727 493.181 372.967 493.263 373.218C493.365 373.491 493.453 373.77 493.524 374.053C493.589 374.366 493.654 374.679 493.707 375.019C493.746 375.217 493.773 375.417 493.785 375.619V376.089C493.785 376.441 493.785 376.82 493.785 377.211V396.63H490.914V377.315C490.914 377.015 490.914 376.702 490.914 376.415L490.849 375.697C490.588 377.981 488.408 380.017 486.503 381.087C485.454 381.754 484.247 382.132 483.005 382.183C482.048 382.195 481.12 381.857 480.395 381.231L480.147 381.374L479.638 381.674L406.348 423.996L398.413 428.577C397.279 429.157 396.02 429.448 394.746 429.425V426.111C396.034 426.102 397.3 425.77 398.426 425.145V425.145Z" fill="#6F79E8"/>
<path opacity="0.4" d="M398.426 425.145L403.477 422.222L461.694 388.63L480.356 377.877C481.661 377.107 482.757 376.833 482.836 377.237V378.085C482.836 379.012 484.141 379.012 485.746 378.085C486.343 377.826 486.865 377.421 487.266 376.908C487.667 376.396 487.934 375.791 488.043 375.149V374.236C488.024 374.032 488.053 373.827 488.127 373.636C488.202 373.446 488.321 373.276 488.473 373.139L488.904 372.904L489.818 372.369L490.953 371.704C491.174 371.56 491.437 371.494 491.7 371.518C491.963 371.542 492.21 371.653 492.402 371.834C492.455 371.871 492.504 371.915 492.545 371.965C492.646 372.071 492.734 372.189 492.806 372.317C492.856 372.374 492.899 372.435 492.937 372.5C493.071 372.727 493.181 372.967 493.263 373.218C493.365 373.491 493.453 373.77 493.524 374.053C493.589 374.366 493.654 374.679 493.707 375.019C493.746 375.217 493.773 375.417 493.785 375.619V376.089C493.785 376.441 493.785 376.82 493.785 377.211V396.63H490.914V377.315C490.914 377.015 490.914 376.702 490.914 376.415L490.849 375.697C490.588 377.981 488.408 380.017 486.503 381.087C485.454 381.754 484.247 382.132 483.005 382.183C482.048 382.195 481.12 381.857 480.395 381.231L480.147 381.374L479.638 381.674L406.348 423.996L398.413 428.577C397.279 429.157 396.02 429.448 394.746 429.425V426.111C396.034 426.102 397.3 425.77 398.426 425.145V425.145Z" fill="black"/>
<path d="M268.691 353.199V356.566C268.731 357.018 268.888 357.452 269.146 357.825C269.405 358.198 269.757 358.497 270.166 358.693V358.693L383.025 423.84L390.947 428.421C392.091 429.013 393.364 429.313 394.653 429.295V425.98C393.358 426.009 392.077 425.703 390.934 425.093L385.896 422.183L270.244 355.391C269.806 355.208 269.428 354.906 269.153 354.518C268.878 354.13 268.718 353.673 268.691 353.199V353.199Z" fill="#6F79E8"/>
<path opacity="0.2" d="M268.691 353.199V356.566C268.731 357.018 268.888 357.452 269.146 357.825C269.405 358.198 269.757 358.497 270.166 358.693V358.693L383.025 423.84L390.947 428.421C392.091 429.013 393.364 429.313 394.653 429.295V425.98C393.358 426.009 392.077 425.703 390.934 425.093L385.896 422.183L270.244 355.391C269.806 355.208 269.428 354.906 269.153 354.518C268.878 354.13 268.718 353.673 268.691 353.199V353.199Z" fill="black"/>
<path d="M268.691 383.658V387.025C268.731 387.477 268.888 387.911 269.146 388.284C269.405 388.658 269.757 388.957 270.166 389.152L383.077 454.313L390.999 458.893C392.144 459.485 393.417 459.786 394.705 459.768V456.453C393.41 456.481 392.129 456.176 390.986 455.565L385.948 452.655L270.244 385.851C269.806 385.668 269.428 385.365 269.153 384.977C268.878 384.59 268.718 384.133 268.691 383.658V383.658Z" fill="#6F79E8"/>
<path opacity="0.2" d="M268.691 383.658V387.025C268.731 387.477 268.888 387.911 269.146 388.284C269.405 388.658 269.757 388.957 270.166 389.152L383.077 454.313L390.999 458.893C392.144 459.485 393.417 459.786 394.705 459.768V456.453C393.41 456.481 392.129 456.176 390.986 455.565L385.948 452.655L270.244 385.851C269.806 385.668 269.428 385.365 269.153 384.977C268.878 384.59 268.718 384.133 268.691 383.658V383.658Z" fill="black"/>
<path d="M320.815 265.252L308.835 286.603L326.296 295.895L339.007 276.972L320.815 265.252Z" fill="#F1CCB1"/>
<path d="M363.32 217.162C356.664 216.026 346.589 215.726 340.038 226.962C333.487 238.199 319.366 265.931 319.366 265.931C319.366 265.931 327.614 276.606 339.555 278.55L359.065 247.595L363.32 217.162Z" fill="#263238"/>
<path d="M347.594 478.638H332.69V504.152H347.594V478.638Z" fill="#FFA8A7"/>
<path d="M304.449 472.426L289.546 472.935L288.802 445.934L303.692 445.425L304.449 472.426Z" fill="#FFA8A7"/>
<path d="M332.689 496.791V494.664C331.267 495.277 327.952 507.923 322.04 513.312C317.342 517.606 310.934 522.552 309.303 527.328C307.606 532.301 318.229 535.054 322.614 534.271C327.717 533.371 336.565 529.782 338.784 526.441C341.002 523.1 342.046 518.206 343.847 515.766C345.648 513.325 349.811 510.546 350.79 507.766C351.325 506.213 350.685 502.82 349.942 499.936C349.25 497.326 348.493 494.403 347.593 494.65V496.269C346.509 497.469 343.521 498.657 340.141 498.787C337.961 498.892 332.676 498.461 332.689 496.791Z" fill="#263238"/>
<path d="M289.391 468.342C288.621 468.342 287.994 469.464 286.285 471.304C283.734 473.881 280.77 476.012 277.515 477.607C271.929 480.413 261.111 484.707 256.178 486.938C253.111 488.322 253.254 492.028 256.426 494.142C259.597 496.256 267.244 497.77 276.445 495.708C281.443 494.586 287.968 489.966 292.105 490.214C296.242 490.462 303.955 490.41 306.995 488.309C310.036 486.208 308.823 481.784 307.961 477.868C307.022 473.666 305.677 467.232 304.281 467.52V468.825C302.493 471.539 293.371 472.648 289.43 470.652L289.391 468.342Z" fill="#263238"/>
<path d="M407.626 323.483C410.888 346.517 406.49 350.889 384.605 372.996C372.86 384.859 353.871 402.255 353.871 402.255C353.871 402.255 354.146 409.615 354.289 426.111C354.433 440.636 348.364 487.904 348.364 487.904C348.364 487.904 338.472 492.067 331.686 487.747C331.686 487.747 328.619 452.577 326.962 434.241C324.717 409.445 323.543 396.943 324.808 391.606C325.931 386.894 348.208 358.758 353.349 350.876L306.003 378.386C306.921 385.356 307.383 392.379 307.386 399.41C306.864 419.129 304.437 458.515 304.437 458.515C304.437 458.515 293.605 463.356 288.228 459.18C288.228 459.18 274.591 373.048 274.591 365.975C274.591 355.234 321.233 323.17 330.068 315.705C335.105 311.451 340.717 306.844 340.717 306.844L407.626 323.483Z" fill="#455A64"/>
<path d="M353.348 350.889C348.368 346.857 344.62 341.508 342.53 335.45C342.791 339.402 343.353 343.329 344.213 347.195C345.518 352.311 306.002 378.386 306.002 378.386L353.348 350.889Z" fill="#37474F"/>
<path d="M379.664 175.968C382.329 164.593 375.269 153.211 363.894 150.545C352.519 147.879 341.137 154.939 338.471 166.314C335.805 177.689 342.865 189.072 354.24 191.738C365.615 194.404 376.998 187.343 379.664 175.968Z" fill="#263238"/>
<path d="M403.515 229.978C403.515 229.978 408.735 234.258 408.735 247.778V276.972L407.992 326.067C397.551 337.434 350.57 333.127 338.942 308.332C338.942 308.332 339.034 256.509 339.034 244.894C339.034 233.279 345.559 218.206 363.307 217.162L386.302 222.513L403.515 229.978Z" fill="#263238"/>
<path d="M395.631 186.18C395.631 186.18 392.199 202.284 390.829 204.933C389.915 206.567 388.404 207.783 386.613 208.327L386.848 196.999L395.631 186.18Z" fill="#263238"/>
<path d="M391.327 163.108C392.518 162.974 393.725 163.112 394.855 163.512C395.985 163.912 397.01 164.564 397.852 165.418C400.671 168.302 399.092 177.333 395.581 186.181L389.121 186.924L391.327 163.108Z" fill="#263238"/>
<path d="M387.242 186.924C388.547 187.694 390.387 185.215 391.979 183.544C393.571 181.874 398.791 179.629 401.388 185.071C403.985 190.513 399.092 198.03 394.994 199.322C387.921 201.541 386.85 196.999 386.85 196.999L386.315 222.513C380.221 229.325 359.38 227.733 363.308 221.834V214.004C363.308 214.004 356.9 214.982 353.781 214.5C348.561 213.69 345.298 209.593 343.719 203.955C341.187 194.911 340.222 187.616 342.414 169.828C344.776 150.331 367.445 150.135 379.686 157.835C391.927 165.535 387.242 186.924 387.242 186.924Z" fill="#F1CCB1"/>
<path d="M369.218 191.387H368.122C366.208 191.387 364.372 190.626 363.019 189.273C361.666 187.92 360.905 186.084 360.905 184.17C360.905 182.256 361.666 180.42 363.019 179.067C364.372 177.713 366.208 176.953 368.122 176.953H369.231C371.145 176.953 372.981 177.713 374.334 179.067C375.688 180.42 376.448 182.256 376.448 184.17C376.448 186.084 375.688 187.92 374.334 189.273C372.981 190.626 371.145 191.387 369.231 191.387H369.218ZM368.122 178.167C366.53 178.167 365.003 178.799 363.877 179.925C362.751 181.051 362.119 182.578 362.119 184.17C362.119 185.762 362.751 187.289 363.877 188.415C365.003 189.541 366.53 190.173 368.122 190.173H369.231C370.824 190.173 372.35 189.541 373.476 188.415C374.602 187.289 375.235 185.762 375.235 184.17C375.235 182.578 374.602 181.051 373.476 179.925C372.35 178.799 370.824 178.167 369.231 178.167H368.122Z" fill="#263238"/>
<path d="M347.242 191.387H346.133C344.219 191.387 342.383 190.626 341.03 189.273C339.676 187.92 338.916 186.084 338.916 184.17C338.916 182.256 339.676 180.42 341.03 179.067C342.383 177.713 344.219 176.953 346.133 176.953H347.242C349.156 176.953 350.992 177.713 352.345 179.067C353.699 180.42 354.459 182.256 354.459 184.17C354.459 186.084 353.699 187.92 352.345 189.273C350.992 190.626 349.156 191.387 347.242 191.387V191.387ZM346.133 178.167C344.541 178.167 343.014 178.799 341.888 179.925C340.762 181.051 340.13 182.578 340.13 184.17C340.13 185.762 340.762 187.289 341.888 188.415C343.014 189.541 344.541 190.173 346.133 190.173H347.242C348.834 190.173 350.361 189.541 351.487 188.415C352.613 187.289 353.245 185.762 353.245 184.17C353.245 182.578 352.613 181.051 351.487 179.925C350.361 178.799 348.834 178.167 347.242 178.167H346.133Z" fill="#263238"/>
<path d="M360.986 182.748C360.546 182.15 359.972 181.663 359.311 181.326C358.649 180.988 357.918 180.81 357.175 180.804C356.557 180.742 355.933 180.828 355.354 181.055C354.775 181.281 354.259 181.643 353.848 182.109L352.882 181.378C353.41 180.753 354.084 180.268 354.844 179.966C355.604 179.663 356.427 179.552 357.241 179.642C358.182 179.652 359.107 179.885 359.94 180.323C360.773 180.761 361.489 181.391 362.03 182.161L360.986 182.748Z" fill="#263238"/>
<path d="M391.117 182.696H375.77V183.909H391.117V182.696Z" fill="#263238"/>
<path d="M387.241 189.104C387.894 189.104 390.36 185.006 391.978 183.544C394.21 181.509 391.326 163.108 391.326 163.108C391.326 163.108 393.479 158.527 389.173 153.803C386.119 150.436 381.003 150.057 372.272 148.687C367.692 147.969 360.749 146.677 356.168 145.829C350.713 144.811 346.185 143.741 342.335 147.134C340.824 148.444 339.755 150.19 339.276 152.132C338.797 154.074 338.931 156.116 339.66 157.979C340.765 160.302 342.731 162.104 345.141 163.003C345.141 163.003 347.516 165.117 355.803 166.122C364.09 167.127 376.997 165.939 378.758 165.692C381.16 165.365 381.669 167.688 382.974 174.057C384.109 179.603 385.088 189.065 387.241 189.104Z" fill="#263238"/>
<path d="M391.313 164.596L399.143 160.381C398.892 159.854 398.537 159.384 398.1 158.999C397.663 158.613 397.152 158.32 396.598 158.137C396.045 157.954 395.46 157.885 394.879 157.934C394.298 157.983 393.733 158.15 393.218 158.423C392.171 159.013 391.391 159.982 391.036 161.13C390.682 162.278 390.781 163.518 391.313 164.596V164.596Z" fill="#263238"/>
<path d="M363.32 214.069C363.32 214.069 374.934 211.733 378.98 209.58C381.367 208.333 383.323 206.396 384.592 204.021C383.977 206.387 382.895 208.606 381.407 210.546C378.432 214.343 363.307 217.136 363.307 217.136L363.32 214.069Z" fill="#CF9E7A"/>
<path d="M365.496 183.847C365.522 184.067 365.741 184.279 366.126 184.457C366.511 184.635 367.045 184.772 367.661 184.85C368.277 184.928 368.949 184.943 369.591 184.895C370.234 184.846 370.82 184.736 371.275 184.577C371.731 184.418 372.037 184.219 372.154 184.003C372.271 183.786 372.194 183.564 371.934 183.362C371.674 183.16 371.241 182.988 370.69 182.868C370.138 182.748 369.493 182.684 368.834 182.685C368.386 182.688 367.944 182.721 367.533 182.781C367.123 182.841 366.752 182.928 366.442 183.036C366.132 183.144 365.889 183.271 365.727 183.41C365.564 183.55 365.486 183.698 365.496 183.847V183.847Z" fill="#263238"/>
<path d="M343.868 183.847C343.894 184.067 344.113 184.279 344.498 184.457C344.883 184.635 345.417 184.772 346.033 184.85C346.649 184.928 347.321 184.943 347.963 184.895C348.606 184.846 349.192 184.736 349.648 184.577C350.103 184.418 350.409 184.219 350.526 184.003C350.643 183.786 350.566 183.564 350.306 183.362C350.046 183.16 349.613 182.988 349.062 182.868C348.51 182.748 347.865 182.684 347.206 182.685C346.758 182.688 346.316 182.721 345.906 182.781C345.495 182.841 345.124 182.928 344.814 183.036C344.504 183.144 344.261 183.271 344.099 183.41C343.937 183.55 343.858 183.698 343.868 183.847V183.847Z" fill="#263238"/>
<path d="M369.846 174.396L374.831 177.137C375.167 176.458 375.234 175.677 375.019 174.951C374.803 174.225 374.321 173.607 373.669 173.222C373.343 173.041 372.983 172.928 372.612 172.889C372.24 172.851 371.865 172.887 371.508 172.997C371.151 173.107 370.82 173.287 370.535 173.527C370.249 173.768 370.015 174.063 369.846 174.396V174.396Z" fill="#263238"/>
<path d="M364.377 200.092L359.065 202.089C359.18 202.446 359.365 202.775 359.61 203.059C359.855 203.342 360.155 203.573 360.491 203.737C360.827 203.902 361.194 203.997 361.568 204.016C361.942 204.036 362.316 203.979 362.667 203.851C363.383 203.567 363.961 203.017 364.28 202.316C364.599 201.615 364.634 200.818 364.377 200.092Z" fill="#CF9E7A"/>
<path d="M344.763 176.432L349.304 172.948C349.093 172.644 348.822 172.385 348.508 172.189C348.195 171.992 347.844 171.861 347.478 171.804C347.112 171.747 346.738 171.764 346.379 171.855C346.02 171.946 345.684 172.109 345.389 172.334C344.778 172.806 344.372 173.495 344.255 174.258C344.139 175.021 344.32 175.8 344.763 176.432Z" fill="#263238"/>
<path d="M358.255 181.496L357.994 195.603L349.655 193.763L358.255 181.496Z" fill="#CF9E7A"/>
<path d="M344.006 298.779V300.084C344.006 300.751 343.829 301.406 343.495 301.984C343.16 302.561 342.68 303.04 342.101 303.372L305.86 324.253C305.283 324.586 304.628 324.762 303.962 324.762C303.295 324.762 302.64 324.586 302.063 324.253L235.571 285.872C234.993 285.54 234.512 285.06 234.178 284.483C233.843 283.906 233.667 283.251 233.666 282.583V281.657L303.955 322.23L344.006 298.779Z" fill="#6F79E8"/>
<path opacity="0.6" d="M344.006 298.779V300.084C344.006 300.751 343.829 301.406 343.495 301.984C343.16 302.561 342.68 303.04 342.101 303.372L305.86 324.253C305.283 324.586 304.628 324.762 303.962 324.762C303.295 324.762 302.64 324.586 302.063 324.253L235.571 285.872C234.993 285.54 234.512 285.06 234.178 284.483C233.843 283.906 233.667 283.251 233.666 282.583V281.657L303.955 322.23L344.006 298.779Z" fill="black"/>
<path d="M233.703 281.669L273.128 258.91C273.473 258.71 273.865 258.605 274.263 258.605C274.662 258.605 275.054 258.71 275.399 258.91L343.782 298.4C343.858 298.445 343.921 298.509 343.964 298.586C344.008 298.662 344.031 298.749 344.031 298.837C344.031 298.925 344.008 299.012 343.964 299.089C343.921 299.165 343.858 299.229 343.782 299.274L303.992 322.243L233.703 281.669Z" fill="#6F79E8"/>
<path opacity="0.5" d="M233.703 281.669L273.128 258.91C273.473 258.71 273.865 258.605 274.263 258.605C274.662 258.605 275.054 258.71 275.399 258.91L343.782 298.4C343.858 298.445 343.921 298.509 343.964 298.586C344.008 298.662 344.031 298.749 344.031 298.837C344.031 298.925 344.008 299.012 343.964 299.089C343.921 299.165 343.858 299.229 343.782 299.274L303.992 322.243L233.703 281.669Z" fill="black"/>
<path d="M304.32 318.902L325.579 306.634L263.408 270.746L242.031 282.948L304.32 318.902Z" fill="#263238"/>
<path d="M314.772 284.79L314.38 285.012L303.953 291.028L285.421 280.327L285.043 280.105L295.849 273.867L314.772 284.79Z" fill="#263238"/>
<path d="M314.381 285.01L303.953 291.027L285.422 280.325L295.849 274.309L314.381 285.01Z" fill="#263238"/>
<path opacity="0.7" d="M303.955 322.243V324.775C303.29 324.774 302.638 324.598 302.063 324.266L235.571 285.885C234.993 285.552 234.512 285.073 234.178 284.496C233.843 283.919 233.667 283.263 233.666 282.596V281.669L303.955 322.243Z" fill="black"/>
<path d="M302.871 322.805C302.238 323.057 301.557 323.16 300.878 323.108C300.2 323.056 299.542 322.85 298.956 322.505L232.764 284.293C232.189 283.963 231.695 283.51 231.316 282.967C230.936 282.423 230.683 281.802 230.572 281.148L223.329 237.926C223.288 237.684 223.266 237.44 223.264 237.195C223.256 235.994 223.725 234.839 224.569 233.984L293.357 273.71C293.793 273.949 294.171 274.284 294.462 274.688C294.753 275.092 294.951 275.556 295.04 276.046L302.871 322.805Z" fill="#6F79E8"/>
<path opacity="0.5" d="M302.871 322.805C302.238 323.057 301.557 323.16 300.878 323.108C300.2 323.056 299.542 322.85 298.956 322.505L232.764 284.293C232.189 283.963 231.695 283.51 231.316 282.967C230.936 282.423 230.683 281.802 230.572 281.148L223.329 237.926C223.288 237.684 223.266 237.44 223.264 237.195C223.256 235.994 223.725 234.839 224.569 233.984L293.357 273.71C293.793 273.949 294.171 274.284 294.462 274.688C294.753 275.092 294.951 275.556 295.04 276.046L302.871 322.805Z" fill="black"/>
<path d="M303.955 322.243L303.511 322.504C303.311 322.62 303.101 322.72 302.885 322.804L295.055 276.045C294.973 275.561 294.785 275.101 294.505 274.697C294.226 274.293 293.861 273.956 293.437 273.709L224.648 233.984C224.922 233.714 225.229 233.482 225.562 233.292L294.494 273.082C294.918 273.33 295.283 273.667 295.562 274.071C295.842 274.474 296.03 274.934 296.112 275.418L303.955 322.243Z" fill="#E0E0E0"/>
<path d="M265.598 282.91C265.116 280.026 262.127 276.176 258.93 274.336C255.732 272.496 253.527 273.331 254.023 276.228C254.519 279.125 257.494 282.962 260.691 284.815C263.889 286.668 266.094 285.807 265.598 282.91Z" fill="#6F79E8"/>
<path d="M279.157 311.046C279.019 309.173 278.656 307.324 278.074 305.539C277.056 302.341 274.029 290.022 267.112 288.169C266.289 287.921 265.416 287.894 264.58 288.09C262.662 288.612 261.787 290.609 261.409 292.397C261.057 295.039 261.057 297.716 261.409 300.358C260.346 299.141 259.1 298.098 257.716 297.265C256.489 296.341 255.009 295.813 253.474 295.751C253.261 295.74 253.048 295.782 252.855 295.873C252.661 295.965 252.493 296.102 252.365 296.273C252.117 296.73 252.365 297.304 252.757 297.708C253.448 298.544 254.296 299.248 254.988 300.084C255.53 300.812 256.031 301.57 256.489 302.354C257.363 303.764 258.342 305.095 259.321 306.439C261.201 309.232 263.561 311.671 266.29 313.643C269.429 315.767 272.99 317.188 276.73 317.806C281.78 318.432 286.687 318.354 289.872 317.245L279.157 311.046Z" fill="#F1CCB1"/>
<path d="M402.132 230.356C397.473 227.954 390.661 237.468 392.827 247.412C394.993 257.357 405.669 292.319 405.669 292.319C405.669 292.319 357.448 296.625 353.35 297.134C350.492 297.473 347.295 296.025 344.645 295.15C341.044 293.95 337.402 293.115 333.853 291.81C333.235 291.526 332.562 291.383 331.882 291.392C331.541 291.407 331.214 291.534 330.952 291.753C330.69 291.972 330.508 292.272 330.434 292.606C330.416 293.014 330.521 293.418 330.734 293.767C331.872 296.089 333.583 298.084 335.706 299.561C336.734 300.169 337.712 300.859 338.629 301.623C339.19 302.185 340.43 303.738 339.934 304.586L320.776 315.613C320.776 315.613 325.187 319.45 341.161 314.974C346.919 313.467 352.538 311.472 357.957 309.01C357.957 309.01 414.778 311.372 425.048 308.266C428.676 307.157 429.981 304.586 427.528 292.893C424.722 279.347 416.67 254.642 414.843 248.117C410.837 233.984 409.884 234.31 402.132 230.356Z" fill="#F1CCB1"/>
<path d="M399.732 228.333C399.732 228.333 407.431 230.499 410.746 234.858C414.061 239.217 426.85 281.383 426.85 281.383C423.507 284.171 419.597 286.199 415.392 287.326C411.187 288.453 406.788 288.651 402.498 287.908C402.498 287.908 392.215 258.74 391.118 250.949C389.174 238.878 395.073 229.377 399.732 228.333Z" fill="#263238"/>
<path d="M385.675 261.869C384.017 261.869 382.652 260.514 382.652 258.842L388.66 258.842C388.66 260.514 387.334 261.869 385.675 261.869Z" fill="#6F79E8"/>
<path fill-rule="evenodd" clip-rule="evenodd" d="M391.641 258.842L388.656 258.842C388.656 258.041 388.339 257.26 387.777 256.694C387.215 256.127 386.453 255.809 385.659 255.809C384.864 255.809 384.102 256.127 383.54 256.694C382.979 257.26 382.652 258.041 382.652 258.842L379.667 258.842C379.667 255.506 382.35 252.789 385.659 252.789C388.968 252.789 391.641 255.506 391.641 258.842Z" fill="#52C4E9"/>
<path d="M383.552 260.98C384.114 261.546 384.866 261.869 385.66 261.869L385.66 264.896C382.351 264.896 379.669 262.179 379.669 258.842L382.653 258.842C382.653 259.643 382.99 260.413 383.552 260.98Z" fill="#78FBD5"/>
<path d="M174.034 456.54C170.038 455.53 148.702 443.39 146.531 441.911C144.361 440.431 140.074 437.375 140.074 432.107C140.074 427.448 140.558 383.505 144.374 362.28C145.628 355.678 148.219 349.402 151.988 343.837C155.757 338.273 160.624 333.539 166.29 329.925C179.564 321.698 192.908 315.738 204.149 320.412C215.39 325.086 225.65 333.672 230.075 344.043C234.499 354.413 237.528 375.181 237.846 383.215C238.164 391.248 237.846 418.792 237.846 421.239C237.846 423.687 237.403 426.867 224.226 435.066C211.049 443.266 192.852 453.042 187.225 455.572C183.039 457.273 178.423 457.612 174.034 456.54V456.54Z" fill="#37474F"/>
<path d="M170.744 335.636C169.527 336.327 166.015 334.599 165.49 333.728C164.965 332.856 164.826 325.321 167.453 321.159C170.081 316.997 186.466 309.323 190.517 309.89C192.034 310.137 193.485 310.691 194.781 311.518C196.077 312.346 197.19 313.429 198.053 314.701C198.551 315.766 199.104 322.776 198.053 324.214C197.002 325.653 193.255 323.44 192.923 322.832C192.591 322.223 194.154 317.094 191.54 316.029C189.134 315.061 177.713 319.914 173.067 323.813C171.048 325.514 171.145 329.731 171.242 331.819C171.339 333.907 171.353 335.276 170.744 335.636Z" fill="#455A64"/>
<path d="M167.453 385.109C169.804 362.28 174.035 348.951 196.366 339.009C218.697 329.067 227.366 337.529 230.533 345.148C234.681 355.823 237.543 375.457 237.847 383.214C238.165 391.248 237.847 418.791 237.847 421.239C237.847 423.686 237.405 426.866 224.228 435.066C211.05 443.265 192.854 453.041 187.226 455.571C183.045 457.287 178.429 457.64 174.035 456.581C173.153 456.312 172.293 455.975 171.463 455.571C164.508 446.639 165.296 405.96 167.453 385.109Z" fill="#455A64"/>
<path d="M219.511 330.091C213.676 326.676 204.108 324.422 190.059 330.686C164.949 341.872 158.575 355.879 156.045 380.463C155.588 384.971 154.911 390.336 154.662 396.102L152.588 394.844C152.878 388.621 153.487 383.298 153.971 378.486C156.736 353.722 164.161 340.033 188.151 329.345C201.439 323.427 210.164 324.201 215.944 327.118C217.185 328.045 218.376 329.038 219.511 330.091Z" fill="#263238"/>
<path d="M220.382 330.727C214.561 327.312 204.979 325.058 190.944 331.322C165.82 342.508 159.446 356.515 156.916 381.1C156.459 385.607 155.782 390.972 155.533 396.738L153.459 395.48C153.749 389.258 154.358 383.934 154.842 379.122C157.607 354.358 165.032 340.655 189.022 329.981C202.31 324.063 211.27 325.045 217.05 327.948C218.212 328.811 219.324 329.739 220.382 330.727V330.727Z" fill="#455A64"/>
<path d="M212.254 352.437L204.663 348.095C204.288 347.885 203.846 347.831 203.432 347.945C203.018 348.059 202.665 348.331 202.451 348.703L194.666 362.24C194.449 362.613 194.388 363.056 194.497 363.473C194.606 363.89 194.875 364.247 195.247 364.466L202.741 368.836C203.114 369.053 203.557 369.113 203.974 369.004C204.391 368.896 204.748 368.626 204.967 368.255L212.849 354.635C212.957 354.453 213.027 354.25 213.056 354.04C213.084 353.829 213.07 353.615 213.015 353.411C212.96 353.206 212.864 353.014 212.733 352.847C212.602 352.679 212.439 352.54 212.254 352.437V352.437Z" fill="#263238"/>
<path d="M204.108 367.286L211.588 354.385C211.642 354.293 211.677 354.191 211.691 354.085C211.705 353.979 211.698 353.871 211.669 353.768C211.641 353.665 211.592 353.568 211.526 353.484C211.46 353.401 211.378 353.331 211.284 353.279L204.371 349.352C204.183 349.247 203.962 349.22 203.755 349.277C203.548 349.334 203.372 349.47 203.265 349.656L195.867 362.502C195.762 362.689 195.735 362.91 195.792 363.117C195.849 363.324 195.985 363.5 196.171 363.608L202.96 367.576C203.054 367.635 203.159 367.675 203.268 367.692C203.377 367.71 203.489 367.705 203.597 367.678C203.704 367.65 203.805 367.602 203.893 367.534C203.981 367.467 204.054 367.382 204.108 367.286V367.286Z" fill="#455A64"/>
<path d="M205.713 361.118C205.912 360.997 206.081 360.832 206.206 360.636C206.331 360.439 206.408 360.216 206.432 359.984V353.803C206.432 353.402 206.114 353.278 205.713 353.499C205.514 353.62 205.345 353.785 205.22 353.982C205.096 354.178 205.018 354.401 204.994 354.633V360.814C204.994 361.215 205.312 361.339 205.713 361.118Z" fill="#37474F"/>
<path d="M201.702 363.443C201.901 363.319 202.069 363.151 202.194 362.952C202.319 362.753 202.396 362.529 202.421 362.295V356.128C202.421 355.727 202.09 355.589 201.702 355.824C201.502 355.943 201.332 356.108 201.207 356.305C201.082 356.502 201.005 356.726 200.983 356.958V363.139C201.025 363.526 201.301 363.664 201.702 363.443Z" fill="#37474F"/>
<path d="M177.795 404.412C177.795 404.412 181.556 407.509 184.266 419.179C186.976 430.849 188.607 445.547 185.648 447.317C182.689 449.087 178.417 445.381 177.352 444.109C175.167 441.496 175.707 413.759 177.795 404.412Z" fill="#263238"/>
<path d="M177.795 404.412C177.795 404.412 181.556 407.509 184.266 419.179C186.976 430.849 188.608 445.547 185.649 447.317L231.278 420.409C234.265 418.64 234.998 403.195 232.301 391.525C230.518 383.851 227.241 380.2 225.222 378.596C224.759 378.239 224.199 378.028 223.615 377.991C223.031 377.954 222.449 378.092 221.945 378.389L177.795 404.412Z" fill="#37474F"/>
<path d="M224.282 380.38C226.467 381.459 230.173 384.432 231.846 392.327C232.128 393.402 232.103 394.534 231.773 395.595C231.443 396.656 230.821 397.603 229.979 398.328C228.458 399.407 195.799 417.976 191.471 420.562C187.737 422.788 185.802 419.829 184.986 417.976C183.603 414.686 182.414 412.127 181.391 410.164C180.61 408.023 179.39 406.068 177.81 404.426L221.323 380.505C221.769 380.243 222.271 380.095 222.787 380.074C223.303 380.052 223.817 380.157 224.282 380.38V380.38Z" fill="#263238"/>
<path d="M156.071 398.025C156.703 400.402 157.115 402.832 157.301 405.284C157.301 405.782 156.624 406.044 156.43 406.044C154.849 405.726 153.385 404.98 152.199 403.887C152.421 401.797 152.8 399.726 153.333 397.693L156.071 398.025Z" fill="#263238"/>
<path d="M157.481 396.074C157.481 395.552 157.326 395.041 157.036 394.607C156.746 394.173 156.333 393.834 155.851 393.634C155.368 393.434 154.837 393.382 154.325 393.484C153.813 393.586 153.342 393.837 152.973 394.207C152.603 394.576 152.352 395.047 152.25 395.559C152.148 396.071 152.2 396.602 152.4 397.085C152.6 397.567 152.939 397.98 153.373 398.27C153.807 398.56 154.318 398.715 154.84 398.715C155.541 398.715 156.212 398.437 156.708 397.942C157.203 397.446 157.481 396.775 157.481 396.074V396.074Z" fill="#263238"/>
<path d="M190.516 315.904C193.405 315.628 196.129 315.904 196.821 318.794C197.512 321.684 197.263 324.325 196.821 324.685C195.357 324.499 193.99 323.85 192.922 322.832C192.59 322.21 194.152 317.094 191.539 316.029C191.218 315.922 190.88 315.88 190.543 315.904H190.516Z" fill="#263238"/>
<path d="M222.221 378.236C222.668 377.972 223.174 377.823 223.692 377.801C224.211 377.779 224.727 377.886 225.194 378.112C227.379 379.19 231.085 382.163 232.758 390.058C233.038 391.133 233.012 392.265 232.682 393.326C232.352 394.386 231.732 395.333 230.891 396.059C229.37 397.138 196.724 415.708 192.396 418.293C188.663 420.519 186.713 417.56 185.898 415.708C181.376 406.25 177.795 404.411 177.795 404.411L222.221 378.236Z" fill="#37474F"/>
</svg>
